<?xml version="1.0" encoding="UTF-8"?>
<svg version="1.1" xmlns="http://www.w3.org/2000/svg" width="2000" height="2000">
<path d="M0 0 C660 0 1320 0 2000 0 C2000 660 2000 1320 2000 2000 C1340 2000 680 2000 0 2000 C0 1340 0 680 0 0 Z " fill="#050816" transform="translate(0,0)"/>
<path d="M0 0 C1.2083337 -0.00172588 1.2083337 -0.00172588 2.44107819 -0.00348663 C45.91730487 -0.04651037 88.55868085 3.48595688 131.5 10.3125 C132.38554565 10.45298767 133.27109131 10.59347534 134.18347168 10.73822021 C155.51473997 14.13723258 176.73060296 17.90634926 197.796875 22.70166016 C199.59647338 23.10832518 201.39861939 23.50387866 203.203125 23.88818359 C209.39637459 25.20887459 209.39637459 25.20887459 210.5 26.3125 C210.59786525 29.04365307 210.62993454 31.74951081 210.62025452 34.48109436 C210.62110894 35.34766189 210.62196337 36.21422941 210.62284368 37.10705656 C210.62450115 40.03371251 210.61897278 42.96031215 210.61352539 45.88696289 C210.61324355 47.97575377 210.61340119 50.06454475 210.6139679 52.15333557 C210.61425599 57.84318614 210.6083573 63.53301583 210.60139394 69.22286153 C210.59516243 75.16195525 210.59455676 81.10104939 210.59336853 87.04014587 C210.59025461 98.29531162 210.58204042 109.55046771 210.57201904 120.80562919 C210.56085977 133.61556457 210.55534792 146.4255004 210.55032361 159.23543942 C210.53985785 185.59446498 210.52225725 211.95348195 210.5 238.3125 C209.09158904 238.16483017 207.68344812 238.0145838 206.27542114 237.86329651 C205.49123369 237.77991311 204.70704624 237.69652971 203.89909554 237.61061954 C200.03122854 237.1299856 196.24122145 236.33115153 192.4296875 235.52734375 C190.65217887 235.16139867 188.87458707 234.79585737 187.09692383 234.43066406 C186.16635162 234.23831177 185.23577942 234.04595947 184.27700806 233.84777832 C159.4502689 228.73377238 134.52370111 224.34255155 109.5 220.3125 C108.66883667 220.17823608 107.83767334 220.04397217 106.98132324 219.90563965 C82.06375448 215.8924163 57.38672585 213.20789946 32.125 213 C31.42994354 212.99028168 30.73488708 212.98056335 30.01876831 212.97055054 C17.07343792 212.81611664 4.97004543 214.04768392 -5.5 222.3125 C-9.09232498 226.2110831 -11.26836367 230.04246394 -11.8125 235.375 C-11.00482877 245.55165746 -5.88665326 252.56356177 1.5 259.3125 C10.14673197 265.61332259 19.28304546 270.38257581 29.05319214 274.65582275 C31.20862151 275.59909496 33.356936 276.55722696 35.50415039 277.51904297 C38.44930953 278.83756442 41.39629031 280.15183598 44.34521484 281.46191406 C77.02605597 295.99818429 110.29858342 311.04775922 140.5 330.3125 C141.58925781 330.99570312 142.67851563 331.67890625 143.80078125 332.3828125 C158.10177698 341.63298295 171.73434028 352.04663091 184.5 363.3125 C185.40234375 364.10398437 186.3046875 364.89546875 187.234375 365.7109375 C205.98886216 382.36264883 221.00334673 402.02771415 232.5 424.3125 C233.06630127 425.40618896 233.06630127 425.40618896 233.64404297 426.52197266 C262.42092861 482.83296858 264.37357674 555.35960472 245.14038086 614.99951172 C235.73756618 642.68942838 220.95371064 667.42284789 200.9453125 688.65625 C198.49344995 691.2542153 198.49344995 691.2542153 196.40625 693.953125 C194.67549776 696.09528555 192.97400135 697.79397971 190.875 699.5625 C188.66915994 701.4382691 186.49604095 703.3162391 184.390625 705.3046875 C156.0382862 731.99499264 118.23671547 748.81048589 81.5 760.3125 C80.49864014 760.63653809 79.49728027 760.96057617 78.46557617 761.29443359 C70.65831089 763.77960792 62.84112313 765.69133571 54.8125 767.3125 C53.56082031 767.56741211 52.30914063 767.82232422 51.01953125 768.08496094 C16.33133791 775.01735442 -18.0571918 777.52917461 -53.375 777.5 C-55.07896439 777.50009064 -55.07896439 777.50009064 -56.81735229 777.50018311 C-79.95353808 777.4828766 -103.02412726 776.71193758 -126.12335205 775.44207764 C-128.28629426 775.32415149 -130.4494254 775.21184437 -132.61279297 775.10205078 C-190.33731833 772.07930082 -254.00431883 763.22393112 -306.2354269 737.40445495 C-307.68988995 736.70312713 -309.15656244 736.02629075 -310.63675785 735.38104272 C-322.8686249 730.00457371 -322.8686249 730.00457371 -325.40419388 724.26615858 C-326.86837518 718.16902848 -326.50482693 711.93722816 -326.31640625 705.71630859 C-326.31188846 703.62619374 -326.31443546 701.53605351 -326.32348633 699.44595337 C-326.32806507 693.79158911 -326.23422997 688.14268994 -326.12230301 682.48959303 C-326.02206118 676.57485898 -326.01286667 670.65998976 -325.99389648 664.74453735 C-325.94422836 653.55222007 -325.81302357 642.36241289 -325.65230465 631.17119944 C-325.47326474 618.42670472 -325.38544536 605.68208802 -325.30517769 592.93664813 C-325.13807878 566.72720879 -324.85678021 540.51999521 -324.5 514.3125 C-316.82633661 515.37434615 -316.82633661 515.37434615 -313.21484375 516.50830078 C-312.44791702 516.74614792 -311.6809903 516.98399506 -310.89082336 517.22904968 C-309.6764283 517.61453728 -309.6764283 517.61453728 -308.4375 518.0078125 C-307.57710617 518.27612381 -306.71671234 518.54443512 -305.83024597 518.82087708 C-303.05197896 519.68831282 -300.27604385 520.56297882 -297.5 521.4375 C-295.58393617 522.03651577 -293.66767554 522.63490239 -291.7512207 523.23266602 C-288.00230261 524.40230353 -284.25403001 525.57396781 -280.50634766 526.74755859 C-271.18916471 529.66295419 -261.85454736 532.51924698 -252.5 535.3125 C-251.72865723 535.54420898 -250.95731445 535.77591797 -250.16259766 536.01464844 C-224.07647425 543.80823988 -197.63813824 550.50195563 -170.9375 555.8125 C-170.10777679 555.97812439 -169.27805359 556.14374878 -168.42318726 556.31439209 C-163.12439856 557.36537077 -157.81851725 558.36643818 -152.5 559.3125 C-151.29811035 559.52672607 -150.0962207 559.74095215 -148.85791016 559.96166992 C-140.30530874 561.33861797 -131.90108188 561.65346417 -123.25927734 561.62817383 C-121.00179135 561.62500252 -118.74560785 561.6486271 -116.48828125 561.67382812 C-103.42539116 561.73106723 -88.08324077 561.0029214 -77.84765625 551.83203125 C-72.57471048 545.88659385 -72.10751067 540.24076612 -72.25390625 532.59375 C-73.16955609 520.38508548 -80.65398477 511.22050968 -89.5 503.3125 C-93.1194307 500.5550194 -96.87639923 498.046246 -100.6875 495.5625 C-101.74485352 494.86713135 -102.80220703 494.1717627 -103.89160156 493.45532227 C-118.81362364 483.73857878 -134.39468976 475.33263076 -150.10745239 466.98376465 C-161.53751909 460.90604032 -172.73629238 454.47083928 -183.86962891 447.86572266 C-186.28337525 446.44041597 -188.70660785 445.03388714 -191.13671875 443.63671875 C-213.14898581 430.95142995 -233.52012698 416.19711986 -252.5 399.3125 C-253.32709473 398.58015137 -253.32709473 398.58015137 -254.17089844 397.83300781 C-289.84776904 366.09000916 -315.7120885 323.79927791 -323.5 276.3125 C-323.67136475 275.34425293 -323.84272949 274.37600586 -324.01928711 273.37841797 C-325.78659277 262.14999407 -325.83810677 250.99920727 -325.81567383 239.65478516 C-325.81253213 236.34633827 -325.83598538 233.03880464 -325.86132812 229.73046875 C-325.91691014 211.33462107 -324.53666152 193.03488322 -319.8125 175.1875 C-319.55831299 174.20579834 -319.30412598 173.22409668 -319.04223633 172.21264648 C-311.78918169 145.20853194 -298.97994503 122.02429954 -281.5 100.3125 C-281.04109375 99.74241211 -280.5821875 99.17232422 -280.109375 98.58496094 C-263.46494862 78.1109447 -243.25440704 62.49183672 -220.5 49.3125 C-219.78263672 48.8887207 -219.06527344 48.46494141 -218.32617188 48.02832031 C-172.24187599 20.84986658 -118.61456479 8.74695032 -65.9375 2.6875 C-64.34143921 2.5023584 -64.34143921 2.5023584 -62.71313477 2.31347656 C-41.86048908 0.02834183 -20.95088266 0.02603055 0 0 Z " fill="#905EFE" transform="translate(1475.5,607.6875)"/>
<path d="M0 0 C110.55 0 221.1 0 335 0 C346.49222915 21.83523539 346.49222915 21.83523539 350.55053711 29.97167969 C351.25774147 31.38345993 351.25774147 31.38345993 351.97923279 32.82376099 C353.49724672 35.85548124 355.01241755 38.88861082 356.52734375 41.921875 C357.60759582 44.0817027 358.68796643 46.24147112 359.76844788 48.40118408 C362.01774652 52.89831919 364.26562235 57.3961617 366.51245117 61.89453125 C369.35792058 67.5911539 372.20696639 73.2859789 375.05710506 78.98026657 C377.28509507 83.43258998 379.51113642 87.88588556 381.73663521 92.33945465 C382.78477246 94.43638506 383.8334789 96.53303107 384.88282585 98.62935638 C390.67562977 110.20475364 396.37122296 121.81826881 401.93243027 133.50674915 C406.72795795 143.56695787 411.70368217 153.534088 416.69921875 163.49609375 C417.67016556 165.43611415 418.64093096 167.37622534 419.61152649 169.31642151 C422.12323944 174.33609327 424.63735481 179.3545577 427.15203857 184.3727417 C429.73502337 189.52834115 432.31564306 194.68512418 434.89648438 199.84179688 C439.92872478 209.89566628 444.96351358 219.94825703 450 230 C451.25598513 227.49709083 452.510958 224.99368227 453.76538086 222.48999023 C454.11548973 221.79255455 454.4655986 221.09511887 454.82631683 220.37654877 C457.84357698 214.35128354 460.76696108 208.28410048 463.62890625 202.18359375 C463.94359863 201.51312012 464.25829102 200.84264648 464.58251953 200.15185547 C464.90591309 199.46236816 465.22930664 198.77288086 465.5625 198.0625 C465.90249023 197.33933594 466.24248047 196.61617187 466.59277344 195.87109375 C471.96509631 184.44061956 477.22417964 172.96163276 482.42532349 161.4524231 C487.51060219 150.20356529 492.7306772 139.02356143 498.01025391 127.86474609 C502.93459734 117.4514393 507.75717198 106.99715964 512.5 96.5 C517.567155 85.28501712 522.73683021 74.12433286 528 63 C534.10236753 50.10131475 540.07330223 37.14809899 545.953125 24.14648438 C546.24734344 23.49593582 546.54156189 22.84538727 546.84469604 22.17512512 C547.62930678 20.4390194 548.41261376 18.70232462 549.19580078 16.96557617 C551.77362369 11.29959816 554.39143512 5.65189058 557 0 C646.43 0 735.86 0 828 0 C827.15480424 4.22597881 826.29107553 6.78072384 824.39892578 10.52685547 C823.58139328 12.15673904 823.58139328 12.15673904 822.74734497 13.81954956 C822.15267426 14.99027008 821.55800354 16.1609906 820.9453125 17.3671875 C820.32231607 18.60501918 819.69992162 19.843154 819.07809448 21.08157349 C817.43361095 24.35342225 815.78234501 27.62179708 814.12921143 30.88928223 C811.20597355 36.66966399 808.29408991 42.45577531 805.3828125 48.2421875 C805.06481438 48.87367455 804.74681625 49.50516159 804.41918182 50.15578461 C799.79501423 59.34324212 795.28935745 68.58117247 790.88076782 77.87423706 C786.65524491 86.76876104 782.25537977 95.57157265 777.82614136 104.36602783 C771.51405523 116.90304667 765.23449462 129.44716601 759.25 142.14453125 C754.22611039 152.74008661 748.91734812 163.19522282 743.65744019 173.67486572 C738.85563709 183.24506424 734.06729797 192.81494794 729.5 202.5 C724.08193629 213.98911881 718.35548816 225.32229587 712.65771484 236.67431641 C707.85582024 246.24469807 703.0673853 255.81476278 698.5 265.5 C693.50725162 276.08722864 688.25051258 286.53907604 683 297 C675.15174617 312.62406046 675.15174617 312.62406046 667.5625 328.375 C661.94474432 340.29200959 655.99489682 352.0428076 650.08624268 363.81726074 C644.70400463 374.54617499 639.36768017 385.28629536 634.25 396.14453125 C629.22611039 406.74008661 623.91734812 417.19522282 618.65744019 427.67486572 C613.85563709 437.24506424 609.06729797 446.81494794 604.5 456.5 C599.08193629 467.98911881 593.35548816 479.32229587 587.65771484 490.67431641 C582.85582024 500.24469807 578.0673853 509.81476278 573.5 519.5 C568.50725162 530.08722864 563.25051258 540.53907604 558 551 C550.15174617 566.62406046 550.15174617 566.62406046 542.5625 582.375 C536.94474432 594.29200959 530.99489682 606.0428076 525.08624268 617.81726074 C519.70400463 628.54617499 514.36768017 639.28629536 509.25 650.14453125 C504.22915243 660.73367083 498.92493352 671.18327788 493.66650391 681.6557312 C488.66265061 691.62384011 483.69942159 701.60107069 478.9375 711.6875 C475.47435546 718.97730879 471.96395061 726.23986243 468.3125 733.4375 C467.89669678 734.28465576 467.48089355 735.13181152 467.05249023 736.00463867 C462.61679436 744.61215539 456.7083764 750.74171213 447.9375 754.875 C446.21853516 755.70644531 446.21853516 755.70644531 444.46484375 756.5546875 C432.19560314 761.67263454 416.09047848 762.42333732 403.6328125 757.3125 C387.9113248 749.4750818 381.33539218 737.40171579 373.75 722.25 C373.00121251 720.77257948 372.25136093 719.29569781 371.50048828 717.81933594 C370.01081288 714.88913105 368.52495595 711.95704428 367.04199219 709.0234375 C364.36687403 703.74087853 361.62641654 698.4931403 358.875 693.25 C354.43438792 684.76234434 350.02314051 676.25972257 345.625 667.75 C345.30884735 667.1383197 344.9926947 666.5266394 344.66696167 665.89642334 C344.19264206 664.97872162 344.19264206 664.97872162 343.70874023 664.04248047 C343.0701538 662.80696405 342.43156331 661.57144972 341.79296875 660.3359375 C341.31850563 659.41794876 341.31850563 659.41794876 340.8344574 658.48141479 C337.5407948 652.10984986 334.23981128 645.74208626 330.9375 639.375 C330.07729248 637.71645996 330.07729248 637.71645996 329.19970703 636.02441406 C328.04447194 633.79718063 326.88919859 631.56996704 325.73388672 629.34277344 C322.82195804 623.72884391 319.91103226 618.11439439 317 612.5 C315.83333808 610.24999754 314.66667142 607.99999754 313.5 605.75 C255.75 494.375 198 383 26.5 52.25 C25.6322998 50.57671631 25.6322998 50.57671631 24.74707031 48.86962891 C23.58986471 46.63769043 22.43295967 44.4055961 21.27636719 42.17333984 C18.54560323 36.90378263 15.81180991 31.63586355 13.06726074 26.37347412 C11.77200159 23.8894954 10.478464 21.40462209 9.18505859 18.91967773 C8.27218583 17.16758173 7.35682667 15.4167819 6.44140625 13.66601562 C5.88839844 12.60318359 5.33539063 11.54035156 4.765625 10.4453125 C4.27868164 9.51219238 3.79173828 8.57907227 3.29003906 7.61767578 C2.06735178 5.1366665 1.02724078 2.56810195 0 0 Z " fill="#905EFE" transform="translate(265,628)"/>
</svg>
